PathFileType	4	(X/Y/Z)	./resultDataOpenSim/trcMotMarkerGrf/sub10/qtm-12-04.trc
DataRate	CameraRate	NumFrames	NumMarkers	Units	OrigDataRate	OrigDataStartFrame	OrigNumFrames
250.000000	250.000000	12	24	m	250.000000	359	478
Frame#	Time	L.Toe.Tip			R.Toe.Tip			L.Ankle.Lat			R.Ankle.Lat			L.Ankle.Med			R.Ankle.Med			L.Heel			R.Heel			L.Knee.Lat			R.Knee.Lat			L.Knee.Med			R.Knee.Med			L.Thigh.Upper			R.Thigh.Upper			L.ASIS			R.ASIS			V.Sacral			L.Acromium			R.Acromium			C7			L.Elbow			R.Elbow			L.Wrist.Lat			R.Wrist.Lat
		X1	Y1	Z1	X2	Y2	Z2	X3	Y3	Z3	X4	Y4	Z4	X5	Y5	Z5	X6	Y6	Z6	X7	Y7	Z7	X8	Y8	Z8	X9	Y9	Z9	X10	Y10	Z10	X11	Y11	Z11	X12	Y12	Z12	X13	Y13	Z13	X14	Y14	Z14	X15	Y15	Z15	X16	Y16	Z16	X17	Y17	Z17	X18	Y18	Z18	X19	Y19	Z19	X20	Y20	Z20	X21	Y21	Z21	X22	Y22	Z22	X23	Y23	Z23	X24	Y24	Z24

359	1.432	0.81597718	0.067597784	-0.1365373	0.82219497	0.037902316	0.056453323	0.70861698	0.14920402	-0.15182412	0.67901468	0.056345997	0.094352539	0.7337762	0.16019753	-0.069442082	0.69992698	0.082855175	0.011431072	0.64017032	0.14448881	-0.10363045	0.62878149	0.034097041	0.04933117	0.90764143	0.47448009	-0.16547162	0.75940235	0.45569824	0.13289629	0.9325376	0.44669564	-0.043866764	0.76611329	0.45660684	0.0043776453	0.79368023	0.8405361	-0.19624177	0.77526748	0.86979653	0.18455689	0.84108255	0.95807147	-0.12896321	0.84567634	0.96711614	0.11074677	0.64248594	0.9674889	-0.014050254	0.76191688	1.4363154	-0.1523032	0.73551215	1.420103	0.17037672	0.66793122	1.4523471	-0.00017840554	0.6682063	1.1055572	-0.21653679	0.6913301	1.0646158	0.22394233	0.79434053	0.8991985	-0.25579452	0.8852205	0.9229632	0.28096132
360	1.436	0.83444293	0.066570177	-0.13573526	0.82218985	0.037881871	0.056483105	0.72473946	0.1449011	-0.15052671	0.67898818	0.056373294	0.094303027	0.74989395	0.15668013	-0.068232238	0.70000897	0.082974445	0.011495083	0.65643498	0.1384699	-0.10191341	0.62905653	0.034034681	0.049549641	0.91580025	0.47543481	-0.16473531	0.76011729	0.45564781	0.13347777	0.94114786	0.44794696	-0.043501801	0.76740725	0.45640043	0.0048337224	0.80063683	0.84074851	-0.19617501	0.77789252	0.86943916	0.1851616	0.84685762	0.95800901	-0.12816812	0.84970097	0.96683148	0.11170354	0.64739428	0.96716494	-0.015278817	0.76708621	1.4359385	-0.15214831	0.74078469	1.4199627	0.17064486	0.67310349	1.4521982	7.6512958e-05	0.67163267	1.1057198	-0.21596085	0.69975508	1.0639317	0.2249711	0.7953241	0.89816204	-0.2559182	0.89694397	0.92508808	0.27944641
361	1.44	0.85302357	0.065624858	-0.13496861	0.82217137	0.037889677	0.056526447	0.74099932	0.1406206	-0.14920453	0.67896708	0.056393698	0.094258096	0.7662177	0.15317284	-0.067023223	0.70022833	0.083106939	0.011601056	0.67290398	0.13249309	-0.10018342	0.62929113	0.033938836	0.049698912	0.92406874	0.47614818	-0.16377884	0.76084696	0.45561339	0.13407202	0.94933281	0.44911522	-0.043244483	0.76865813	0.45615298	0.0052467815	0.80780491	0.840927	-0.19611534	0.7801227	0.86916399	0.18578037	0.85262516	0.95787188	-0.12738642	0.85372535	0.96651471	0.1126536	0.65235459	0.96684749	-0.016351383	0.7722613	1.4354875	-0.15200652	0.74606006	1.4197516	0.17090833	0.67827494	1.4519802	0.00031889292	0.67504202	1.1058395	-0.21534099	0.70816853	1.0631633	0.22579876	0.79630734	0.897109	-0.25604065	0.90857189	0.92721067	0.27786992
362	1.444	0.87171735	0.064756091	-0.13425898	0.82215195	0.037918019	0.056576018	0.75739871	0.1363999	-0.14784596	0.67895227	0.056405694	0.094217736	0.78271607	0.14966259	-0.065849113	0.70041804	0.083247021	0.011688923	0.68961833	0.12655253	-0.098430285	0.62939133	0.033880205	0.049705531	0.93252272	0.47658562	-0.16261917	0.76157444	0.45560106	0.13465181	0.95750843	0.45018504	-0.043037831	0.76992941	0.45588339	0.0056575311	0.81497225	0.84106226	-0.19602765	0.78262346	0.86898513	0.18624503	0.85841815	0.95765461	-0.12660638	0.85775515	0.96616651	0.11359828	0.65741664	0.96653498	-0.017187249	0.77744699	1.4349687	-0.15187011	0.75133476	1.4194692	0.17116256	0.68344335	1.4516997	0.00054849277	0.6784503	1.1059224	-0.21469399	0.71670301	1.0623818	0.22655839	0.79732251	0.8960443	-0.25617639	0.9200092	0.92934268	0.27627148
363	1.448	0.89050728	0.063989826	-0.13360946	0.82214899	0.037955168	0.05662462	0.77392992	0.13224068	-0.14645344	0.67893926	0.056407667	0.094182009	0.79926293	0.14610113	-0.064784404	0.70038274	0.083361739	0.01166699	0.70664696	0.12058544	-0.09665846	0.62933592	0.033880681	0.049588946	0.94112829	0.47677538	-0.1613314	0.76230485	0.4556033	0.13519906	0.96634385	0.45114784	-0.042730485	0.77125576	0.45560172	0.0060888304	0.82194602	0.84113148	-0.19588105	0.78580348	0.86883763	0.18648339	0.86425949	0.95736094	-0.12583006	0.86179371	0.96578543	0.11453429	0.66254014	0.96618561	-0.017846899	0.78264141	1.4343918	-0.15173659	0.75660744	1.4191165	0.17141196	0.68860803	1.4513576	0.00076615545	0.68187027	1.105963	-0.21405159	0.72544323	1.061646	0.22742028	0.7984283	0.89497886	-0.25635452	0.93123887	0.93148579	0.27469604
364	1.452	0.90931588	0.063356469	-0.13299445	0.82217974	0.037994094	0.056672965	0.79057749	0.12812585	-0.14504527	0.67892192	0.05640012	0.094151516	0.81564261	0.14244757	-0.063890783	0.70015167	0.083430681	0.011546947	0.72400932	0.11455165	-0.094866071	0.62915692	0.033923686	0.049418892	0.9497398	0.47680523	-0.16004076	0.76305729	0.45560428	0.13570603	0.97599565	0.45200322	-0.04223536	0.77264186	0.45530352	0.0065409504	0.82865412	0.84111409	-0.19566341	0.78940995	0.86864028	0.18658914	0.87015414	0.95699888	-0.12506572	0.8658396	0.96536846	0.11545468	0.66762511	0.96575369	-0.018532092	0.78784237	1.4337602	-0.15160912	0.7618798	1.4186953	0.17166345	0.69376904	1.450954	0.00097483645	0.68530887	1.1059574	-0.21342676	0.73434257	1.06096	0.22841992	0.79967543	0.89392357	-0.25660006	0.94232435	0.93362999	0.27315462
365	1.456	0.92806203	0.062864094	-0.13238216	0.82225333	0.038037322	0.056728688	0.80732516	0.12405436	-0.14364049	0.67889908	0.056384426	0.094127103	0.83179283	0.1387591	-0.063104995	0.69992014	0.083466748	0.011425617	0.74165855	0.10849466	-0.093048455	0.62891975	0.033986668	0.049259511	0.95818828	0.47677377	-0.15886753	0.76385421	0.4555859	0.13616948	0.98577175	0.45275804	-0.041624528	0.77407477	0.45497949	0.0069944958	0.83516313	0.84101001	-0.19538745	0.79297704	0.86836163	0.18669838	0.87608178	0.95657297	-0.12431986	0.8698901	0.96491345	0.11635283	0.67260724	0.96521045	-0.019435015	0.79304776	1.433075	-0.15148985	0.76714752	1.4182064	0.17191388	0.69892358	1.4504974	0.0011755286	0.68877709	1.1059084	-0.21278724	0.74329363	1.0603005	0.22945578	0.80105696	0.89288058	-0.25690465	0.95332536	0.9357679	0.2716317
366	1.46	0.94673236	0.062505044	-0.13176196	0.82234842	0.038085366	0.056795498	0.82416446	0.12004988	-0.14224521	0.67887426	0.056362543	0.09410893	0.84805156	0.13522215	-0.06221231	0.69980023	0.083496203	0.011361099	0.7594816	0.1025239	-0.091215204	0.62869118	0.034049842	0.049118959	0.96637833	0.47673895	-0.15787504	0.76471569	0.45552997	0.13658609	0.9948951	0.45341923	-0.041021515	0.77554267	0.45463356	0.00742908	0.84159568	0.84083532	-0.19508205	0.79631386	0.86801866	0.18686407	0.88200467	0.95608354	-0.12359676	0.87394742	0.96442325	0.11722454	0.67746894	0.96454448	-0.020618916	0.79825702	1.4323387	-0.1513749	0.77240343	1.4176485	0.17215243	0.7040679	1.4499975	0.0013664762	0.69230382	1.1058242	-0.21205239	0.75222941	1.0596499	0.23042892	0.8024755	0.89183582	-0.25721442	0.96425698	0.93791079	0.27010681
367	1.464	0.9653581	0.062277561	-0.13114249	0.82241376	0.038130358	0.056869953	0.84109843	0.11614062	-0.14084925	0.67885056	0.05633852	0.094096649	0.8649661	0.13203154	-0.061029468	0.69978054	0.083534617	0.011348614	0.77736272	0.096727552	-0.089394293	0.62848968	0.034102191	0.048947342	0.97430801	0.47670893	-0.15706658	0.76565875	0.4554175	0.13695053	1.0032298	0.45398558	-0.040480938	0.77704175	0.45428564	0.0078360314	0.84804943	0.84060766	-0.19477636	0.79949267	0.86763182	0.18705808	0.88790343	0.95553051	-0.12290315	0.87802427	0.9639079	0.11806615	0.68219182	0.96377666	-0.02194281	0.8034698	1.4315516	-0.15125808	0.77765002	1.4170232	0.17237415	0.70920339	1.4494543	0.0015485286	0.69592835	1.1057109	-0.21114894	0.76114865	1.0589883	0.23136846	0.80379296	0.89076617	-0.25745587	0.97511246	0.94007957	0.26855672
368	1.468	0.98396031	0.062188109	-0.1305341	0.82242415	0.038170436	0.056948878	0.85813797	0.11233997	-0.13943507	0.67883019	0.056316351	0.094089654	0.88285998	0.12923473	-0.059641676	0.69984309	0.083573663	0.011373093	0.79528474	0.091120887	-0.08760843	0.62829721	0.03414445	0.048712668	0.98202957	0.47666477	-0.15641532	0.76670115	0.45522817	0.1372557	1.0110882	0.45445083	-0.039993895	0.7785728	0.45395417	0.0082123338	0.85456425	0.84033906	-0.19448763	0.80262657	0.86720245	0.18724895	0.89379798	0.95491782	-0.12225096	0.88214711	0.96337927	0.11887064	0.6867101	0.96299311	-0.023087692	0.80867983	1.4307127	-0.15113914	0.78290103	1.416339	0.17258376	0.71433422	1.448861	0.0017263433	0.69965671	1.1055623	-0.21011729	0.77008828	1.0582644	0.23247108	0.80495331	0.88966336	-0.25759333	0.98588301	0.94227777	0.26696135
369	1.472	1.0025368	0.062238107	-0.12994007	0.82240157	0.038211037	0.057028992	0.87529037	0.10864669	-0.13799825	0.67881731	0.056296367	0.094085274	0.90167902	0.1267236	-0.058390629	0.69999015	0.083587271	0.011423025	0.81331195	0.085685305	-0.085852623	0.62812093	0.034180218	0.048462981	0.98961021	0.47658193	-0.15588934	0.76787073	0.45494385	0.13749605	1.0187531	0.45480975	-0.039534829	0.78014602	0.45363804	0.0085572227	0.86113166	0.84003676	-0.19422213	0.80575129	0.86672196	0.18746142	0.89971784	0.95425573	-0.12164982	0.88634965	0.96283664	0.11962524	0.69094635	0.96230455	-0.023780062	0.8138774	1.4298259	-0.15102564	0.78816884	1.4156106	0.17278499	0.71946076	1.4482154	0.0019051321	0.70342655	1.1053609	-0.20913932	0.77908464	1.0574009	0.23400408	0.80604236	0.8885466	-0.25766475	0.99656899	0.94448337	0.26532049
370	1.476	1.0210752	0.062420732	-0.12935751	0.82235838	0.038244731	0.057097152	0.8925426	0.10506189	-0.1365598	0.67881834	0.056276253	0.094076975	0.92102901	0.12434803	-0.057519048	0.70018399	0.083565623	0.011474167	0.83148767	0.080417055	-0.084110746	0.62799394	0.034212313	0.048275598	0.99711126	0.47643678	-0.15545783	0.76921621	0.45455925	0.13767535	1.0263234	0.45505669	-0.039080493	0.78178606	0.45331681	0.0088761349	0.86772841	0.83970842	-0.1939828	0.80884503	0.86619482	0.18774155	0.90566063	0.95355533	-0.12109265	0.89063844	0.96225379	0.1203194	0.69508619	0.96170037	-0.023992685	0.81905876	1.4289007	-0.15092276	0.79345502	1.4148513	0.17297425	0.72458356	1.4475183	0.002085668	0.70715145	1.1050973	-0.20837805	0.78814231	1.0563796	0.23601449	0.80719259	0.88744148	-0.25774122	1.0071824	0.94667555	0.26364968
